<svg xmlns="http://www.w3.org/2000/svg" xmlns:xlink="http://www.w3.org/1999/xlink" width="1350" zoomAndPan="magnify" viewBox="0 0 1012.5 494.999988" height="660" preserveAspectRatio="xMidYMid meet" version="1.0"><defs><g/><clipPath id="cff15de5fa"><path d="M 0 0.121094 L 1012 0.121094 L 1012 494.875 L 0 494.875 Z M 0 0.121094 " clip-rule="nonzero"/></clipPath><clipPath id="eb85fcc4e2"><path d="M 0 32.21875 L 658.136719 32.21875 L 658.136719 275.640625 L 0 275.640625 Z M 0 32.21875 " clip-rule="nonzero"/></clipPath><clipPath id="47881e87d1"><path d="M 4 0.21875 L 301 0.21875 L 301 242 L 4 242 Z M 4 0.21875 " clip-rule="nonzero"/></clipPath><clipPath id="57658fd1ff"><rect x="0" width="659" y="0" height="244"/></clipPath><clipPath id="ea5fd40f0d"><path d="M 110 0.601562 L 1012 0.601562 L 1012 494.875 L 110 494.875 Z M 110 0.601562 " clip-rule="nonzero"/></clipPath><clipPath id="3bc3110e59"><rect x="0" width="902" y="0" height="495"/></clipPath><clipPath id="e332158a79"><rect x="0" width="1012" y="0" height="495"/></clipPath></defs><g clip-path="url(#cff15de5fa)"><g transform="matrix(1, 0, 0, 1, 0, -0.000000000000066724)"><g clip-path="url(#e332158a79)"><g clip-path="url(#eb85fcc4e2)"><g transform="matrix(1, 0, 0, 1, 0, 32)"><g clip-path="url(#57658fd1ff)"><g clip-path="url(#47881e87d1)"><path fill="#3a52a3" d="M 36.988281 138.222656 C 39.515625 132.703125 42.664062 127.566406 46.433594 122.8125 C 50.203125 118.058594 54.488281 113.824219 59.285156 110.109375 L 72.628906 99.84375 C 72.910156 99.628906 73.167969 99.386719 73.402344 99.125 C 73.636719 98.859375 73.847656 98.578125 74.027344 98.277344 C 74.210938 97.972656 74.363281 97.65625 74.488281 97.324219 C 74.613281 96.996094 74.703125 96.65625 74.765625 96.308594 C 74.824219 95.960938 74.851562 95.609375 74.847656 95.257812 C 74.84375 94.902344 74.808594 94.554688 74.738281 94.207031 C 74.667969 93.859375 74.566406 93.523438 74.4375 93.195312 C 74.304688 92.871094 74.144531 92.554688 73.953125 92.257812 L 43.523438 44.699219 L 78.5625 0.5625 L 296.992188 18.46875 C 297.488281 18.511719 297.964844 18.640625 298.414062 18.863281 C 298.863281 19.082031 299.257812 19.378906 299.597656 19.746094 C 299.9375 20.113281 300.199219 20.53125 300.382812 20.996094 C 300.566406 21.464844 300.660156 21.949219 300.664062 22.449219 L 300.664062 81.617188 C 300.664062 82.113281 300.578125 82.59375 300.402344 83.054688 C 300.226562 83.515625 299.972656 83.933594 299.640625 84.300781 C 299.308594 84.667969 298.925781 84.964844 298.484375 85.1875 C 298.042969 85.410156 297.574219 85.546875 297.082031 85.597656 L 138.550781 101.917969 C 137.691406 102.007812 136.890625 102.277344 136.152344 102.730469 C 135.414062 103.179688 134.8125 103.769531 134.34375 104.496094 L 52.921875 229.828125 C 52.148438 231.011719 51.289062 232.125 50.335938 233.171875 C 49.386719 234.21875 48.359375 235.183594 47.253906 236.0625 C 46.148438 236.945312 44.976562 237.730469 43.746094 238.425781 C 42.511719 239.117188 41.234375 239.707031 39.90625 240.195312 C 38.582031 240.683594 37.222656 241.0625 35.835938 241.335938 C 34.449219 241.605469 33.046875 241.761719 31.632812 241.808594 C 30.222656 241.851562 28.8125 241.785156 27.410156 241.605469 C 26.007812 241.425781 24.632812 241.132812 23.277344 240.730469 C 21.921875 240.332031 20.605469 239.824219 19.332031 239.210938 C 18.058594 238.597656 16.839844 237.886719 15.679688 237.078125 C 14.519531 236.269531 13.433594 235.375 12.414062 234.394531 C 11.398438 233.410156 10.46875 232.351562 9.621094 231.21875 C 8.773438 230.089844 8.023438 228.894531 7.367188 227.644531 C 6.714844 226.390625 6.164062 225.09375 5.714844 223.753906 C 5.269531 222.410156 4.929688 221.042969 4.703125 219.648438 C 4.476562 218.253906 4.359375 216.847656 4.359375 215.433594 C 4.40625 211.589844 5.226562 207.914062 6.824219 204.417969 Z M 178.117188 39.238281 L 263.105469 45.863281 L 263.550781 45.863281 C 263.925781 45.878906 264.296875 45.855469 264.667969 45.796875 C 265.039062 45.738281 265.398438 45.644531 265.75 45.515625 C 266.101562 45.382812 266.4375 45.222656 266.757812 45.027344 C 267.074219 44.828125 267.375 44.605469 267.648438 44.351562 C 267.921875 44.09375 268.171875 43.816406 268.390625 43.511719 C 268.609375 43.210938 268.800781 42.886719 268.957031 42.546875 C 269.113281 42.207031 269.234375 41.855469 269.324219 41.492188 C 269.410156 41.125 269.460938 40.757812 269.476562 40.382812 C 269.492188 40.007812 269.46875 39.636719 269.410156 39.265625 C 269.351562 38.894531 269.257812 38.535156 269.125 38.183594 C 268.996094 37.832031 268.835938 37.496094 268.636719 37.175781 C 268.441406 36.859375 268.21875 36.5625 267.960938 36.285156 C 267.707031 36.011719 267.429688 35.761719 267.125 35.542969 C 266.824219 35.324219 266.5 35.132812 266.160156 34.976562 C 265.820312 34.820312 265.46875 34.699219 265.105469 34.609375 C 264.738281 34.523438 264.371094 34.472656 263.996094 34.457031 L 179.003906 27.832031 C 178.628906 27.800781 178.257812 27.808594 177.882812 27.855469 C 177.511719 27.898438 177.144531 27.980469 176.789062 28.09375 C 176.433594 28.210938 176.089844 28.363281 175.761719 28.546875 C 175.433594 28.730469 175.128906 28.941406 174.84375 29.1875 C 174.558594 29.429688 174.296875 29.699219 174.066406 29.996094 C 173.832031 30.292969 173.632812 30.605469 173.460938 30.941406 C 173.292969 31.277344 173.15625 31.625 173.054688 31.984375 C 172.953125 32.347656 172.886719 32.714844 172.859375 33.089844 C 172.828125 33.464844 172.835938 33.835938 172.878906 34.210938 C 172.925781 34.582031 173.003906 34.949219 173.121094 35.304688 C 173.238281 35.664062 173.386719 36.003906 173.570312 36.332031 C 173.753906 36.660156 173.96875 36.964844 174.214844 37.253906 C 174.457031 37.539062 174.726562 37.796875 175.023438 38.027344 C 175.316406 38.261719 175.632812 38.460938 175.96875 38.632812 C 176.300781 38.800781 176.648438 38.9375 177.011719 39.039062 C 177.371094 39.140625 177.742188 39.207031 178.117188 39.238281 Z M 142.359375 35.691406 C 142.710938 36.378906 143.128906 37.023438 143.613281 37.628906 C 144.746094 38.660156 146.078125 39.191406 147.605469 39.226562 C 148.402344 39.238281 149.160156 39.085938 149.886719 38.769531 C 150.417969 38.574219 150.902344 38.300781 151.34375 37.949219 C 151.785156 37.597656 152.160156 37.1875 152.46875 36.714844 C 152.777344 36.242188 153.003906 35.730469 153.148438 35.1875 C 153.292969 34.640625 153.34375 34.085938 153.308594 33.523438 C 153.308594 32.78125 153.191406 32.058594 152.96875 31.355469 C 152.613281 30.703125 152.195312 30.09375 151.710938 29.53125 C 151.308594 29.128906 150.855469 28.792969 150.355469 28.527344 C 149.851562 28.257812 149.324219 28.070312 148.765625 27.957031 C 148.207031 27.847656 147.644531 27.816406 147.078125 27.871094 C 146.511719 27.925781 145.964844 28.0625 145.441406 28.277344 C 144.019531 28.910156 142.992188 29.9375 142.359375 31.355469 C 142.097656 32.054688 141.945312 32.777344 141.902344 33.523438 C 141.933594 34.269531 142.085938 34.992188 142.359375 35.691406 Z M 142.359375 35.691406 " fill-opacity="1" fill-rule="nonzero"/></g><path fill="#3a52a3" d="M 532.859375 15.675781 L 650.867188 15.675781 C 651.34375 15.675781 651.800781 15.769531 652.238281 15.949219 C 652.675781 16.132812 653.0625 16.394531 653.398438 16.730469 C 653.734375 17.066406 653.996094 17.453125 654.175781 17.894531 C 654.355469 18.332031 654.449219 18.792969 654.449219 19.265625 L 654.449219 86.042969 C 654.449219 86.519531 654.355469 86.976562 654.175781 87.414062 C 653.996094 87.855469 653.734375 88.242188 653.398438 88.578125 C 653.0625 88.917969 652.675781 89.175781 652.238281 89.359375 C 651.800781 89.542969 651.34375 89.632812 650.867188 89.636719 L 532.859375 89.636719 C 532.382812 89.632812 531.925781 89.542969 531.488281 89.359375 C 531.046875 89.175781 530.660156 88.917969 530.324219 88.578125 C 529.988281 88.242188 529.730469 87.855469 529.550781 87.414062 C 529.367188 86.976562 529.277344 86.519531 529.277344 86.042969 L 529.277344 19.265625 C 529.277344 18.792969 529.367188 18.332031 529.550781 17.894531 C 529.730469 17.453125 529.988281 17.066406 530.324219 16.730469 C 530.660156 16.394531 531.046875 16.132812 531.488281 15.949219 C 531.925781 15.769531 532.382812 15.675781 532.859375 15.675781 Z M 532.859375 15.675781 " fill-opacity="1" fill-rule="nonzero"/><path fill="#3a52a3" d="M 166.757812 110.425781 C 167.496094 114.464844 168.191406 118.511719 169.164062 122.472656 C 172.429688 135.792969 176.992188 148.652344 182.847656 161.054688 C 178.757812 160.121094 174.808594 158.765625 171.011719 156.984375 C 167.203125 155.050781 163.613281 152.777344 160.242188 150.160156 C 156.871094 147.542969 153.777344 144.632812 150.960938 141.425781 C 148.144531 138.214844 145.65625 134.773438 143.5 131.089844 C 141.339844 127.40625 139.550781 123.554688 138.128906 119.527344 L 142.417969 112.9375 Z M 166.757812 110.425781 " fill-opacity="1" fill-rule="nonzero"/><path fill="#3a52a3" d="M 517.871094 31.242188 L 312.101562 31.242188 L 312.101562 68.789062 L 517.871094 68.789062 Z M 517.871094 31.242188 " fill-opacity="1" fill-rule="nonzero"/></g></g></g><g clip-path="url(#ea5fd40f0d)"><g transform="matrix(1, 0, 0, 1, 110, -0.000000000000066724)"><g clip-path="url(#3bc3110e59)"><g fill="#3a52a3" fill-opacity="1"><g transform="translate(0.441001, 423.194939)"><g><path d="M 210.484375 -284.703125 L 210.484375 -229.140625 L 94.5 -229.140625 L 94.5 -169.125 L 181.28125 -169.125 L 181.28125 -115.1875 L 94.5 -115.1875 L 94.5 0 L 25.140625 0 L 25.140625 -284.703125 Z M 210.484375 -284.703125 "/></g></g></g><g fill="#3a52a3" fill-opacity="1"><g transform="translate(222.260942, 423.194939)"><g><path d="M 242.125 -193.046875 C 242.125 -176.554688 238.335938 -161.484375 230.765625 -147.828125 C 223.191406 -134.171875 211.5625 -123.148438 195.875 -114.765625 C 180.195312 -106.390625 160.734375 -102.203125 137.484375 -102.203125 L 94.5 -102.203125 L 94.5 0 L 25.140625 0 L 25.140625 -284.703125 L 137.484375 -284.703125 C 160.191406 -284.703125 179.382812 -280.78125 195.0625 -272.9375 C 210.75 -265.101562 222.515625 -254.289062 230.359375 -240.5 C 238.203125 -226.707031 242.125 -210.890625 242.125 -193.046875 Z M 132.21875 -157.359375 C 145.457031 -157.359375 155.320312 -160.46875 161.8125 -166.6875 C 168.300781 -172.90625 171.546875 -181.691406 171.546875 -193.046875 C 171.546875 -204.398438 168.300781 -213.1875 161.8125 -219.40625 C 155.320312 -225.625 145.457031 -228.734375 132.21875 -228.734375 L 94.5 -228.734375 L 94.5 -157.359375 Z M 132.21875 -157.359375 "/></g></g></g><g fill="#3a52a3" fill-opacity="1"><g transform="translate(475.305971, 423.194939)"><g><path d="M 416.921875 -284.703125 L 342.703125 0 L 258.75 0 L 213.328125 -187.375 L 166.28125 0 L 82.328125 0 L 10.140625 -284.703125 L 84.359375 -284.703125 L 125.3125 -77.46875 L 176.015625 -284.703125 L 252.265625 -284.703125 L 300.921875 -77.46875 L 342.296875 -284.703125 Z M 416.921875 -284.703125 "/></g></g></g></g></g></g></g></g></g></svg>