<svg xmlns="http://www.w3.org/2000/svg" xmlns:xlink="http://www.w3.org/1999/xlink" width="500" zoomAndPan="magnify" viewBox="0 0 375 374.999991" height="500" preserveAspectRatio="xMidYMid meet" version="1.0"><defs><g/><clipPath id="40042e0db4"><path d="M 19.125 105.160156 L 238.125 105.160156 L 238.125 186.160156 L 19.125 186.160156 Z M 19.125 105.160156 " clip-rule="nonzero"/></clipPath><clipPath id="3258c053c7"><path d="M 1 0.160156 L 101 0.160156 L 101 81 L 1 81 Z M 1 0.160156 " clip-rule="nonzero"/></clipPath><clipPath id="78af9bb8a8"><rect x="0" width="220" y="0" height="82"/></clipPath><clipPath id="0740584e40"><rect x="0" width="302" y="0" height="190"/></clipPath></defs><g clip-path="url(#40042e0db4)"><g transform="matrix(1, 0, 0, 1, 19, 105)"><g clip-path="url(#78af9bb8a8)"><g clip-path="url(#3258c053c7)"><path fill="#3a52a3" d="M 12.433594 46.082031 C 14.140625 42.355469 16.613281 39.238281 19.851562 36.726562 L 24.292969 33.3125 C 24.480469 33.167969 24.636719 32.992188 24.757812 32.789062 C 24.882812 32.585938 24.960938 32.367188 25.003906 32.132812 C 25.042969 31.902344 25.042969 31.667969 24.996094 31.4375 C 24.949219 31.203125 24.859375 30.988281 24.734375 30.789062 L 14.609375 14.960938 L 26.265625 0.273438 L 98.949219 6.234375 C 99.117188 6.246094 99.273438 6.289062 99.425781 6.363281 C 99.574219 6.4375 99.707031 6.535156 99.820312 6.65625 C 99.933594 6.78125 100.019531 6.917969 100.078125 7.074219 C 100.140625 7.230469 100.171875 7.390625 100.171875 7.558594 L 100.171875 27.246094 C 100.171875 27.410156 100.144531 27.570312 100.085938 27.722656 C 100.027344 27.878906 99.941406 28.015625 99.832031 28.140625 C 99.722656 28.261719 99.59375 28.359375 99.445312 28.433594 C 99.300781 28.507812 99.144531 28.554688 98.980469 28.570312 L 46.230469 34 C 45.625 34.0625 45.15625 34.347656 44.828125 34.859375 L 17.734375 76.5625 C 17.21875 77.355469 16.589844 78.050781 15.847656 78.640625 C 15.109375 79.230469 14.292969 79.6875 13.40625 80.015625 C 12.515625 80.339844 11.597656 80.519531 10.652344 80.550781 C 9.707031 80.582031 8.777344 80.460938 7.871094 80.191406 C 6.960938 79.921875 6.121094 79.519531 5.34375 78.976562 C 4.566406 78.4375 3.894531 77.785156 3.328125 77.027344 C 2.757812 76.269531 2.328125 75.441406 2.027344 74.542969 C 1.726562 73.644531 1.578125 72.722656 1.574219 71.773438 C 1.589844 70.496094 1.863281 69.273438 2.394531 68.109375 Z M 59.394531 13.144531 L 87.675781 15.347656 L 87.824219 15.347656 C 88.074219 15.359375 88.320312 15.320312 88.554688 15.234375 C 88.792969 15.144531 89 15.015625 89.1875 14.84375 C 89.371094 14.675781 89.515625 14.472656 89.621094 14.246094 C 89.726562 14.015625 89.785156 13.777344 89.792969 13.523438 C 89.804688 13.273438 89.765625 13.03125 89.679688 12.792969 C 89.589844 12.558594 89.460938 12.347656 89.292969 12.160156 C 89.121094 11.976562 88.921875 11.832031 88.691406 11.726562 C 88.464844 11.621094 88.222656 11.5625 87.972656 11.554688 L 59.691406 9.347656 C 59.4375 9.328125 59.191406 9.359375 58.953125 9.4375 C 58.710938 9.515625 58.496094 9.636719 58.304688 9.800781 C 58.113281 9.964844 57.960938 10.160156 57.84375 10.382812 C 57.730469 10.609375 57.664062 10.847656 57.644531 11.097656 C 57.625 11.351562 57.652344 11.59375 57.730469 11.835938 C 57.8125 12.074219 57.933594 12.292969 58.097656 12.484375 C 58.261719 12.675781 58.453125 12.828125 58.679688 12.941406 C 58.902344 13.058594 59.140625 13.125 59.394531 13.144531 Z M 47.496094 11.964844 C 47.613281 12.191406 47.753906 12.40625 47.914062 12.609375 C 48.289062 12.953125 48.734375 13.128906 49.242188 13.140625 C 49.507812 13.144531 49.757812 13.09375 50 12.988281 C 50.363281 12.855469 50.648438 12.628906 50.859375 12.304688 C 51.070312 11.980469 51.164062 11.628906 51.140625 11.242188 C 51.140625 10.996094 51.101562 10.753906 51.027344 10.519531 C 50.910156 10.304688 50.769531 10.101562 50.609375 9.914062 C 50.335938 9.640625 50.007812 9.464844 49.628906 9.390625 C 49.25 9.316406 48.878906 9.351562 48.519531 9.496094 C 48.046875 9.707031 47.707031 10.046875 47.496094 10.519531 C 47.410156 10.753906 47.359375 10.996094 47.34375 11.242188 C 47.355469 11.492188 47.40625 11.730469 47.496094 11.964844 Z M 47.496094 11.964844 " fill-opacity="1" fill-rule="nonzero"/></g><path fill="#3a52a3" d="M 177.4375 5.304688 L 216.707031 5.304688 C 216.863281 5.304688 217.015625 5.335938 217.160156 5.394531 C 217.308594 5.457031 217.4375 5.542969 217.546875 5.65625 C 217.660156 5.765625 217.746094 5.894531 217.804688 6.042969 C 217.867188 6.1875 217.898438 6.339844 217.898438 6.5 L 217.898438 28.71875 C 217.898438 28.878906 217.867188 29.027344 217.804688 29.175781 C 217.746094 29.320312 217.660156 29.449219 217.546875 29.5625 C 217.4375 29.675781 217.308594 29.761719 217.160156 29.820312 C 217.015625 29.882812 216.863281 29.914062 216.707031 29.914062 L 177.4375 29.914062 C 177.277344 29.914062 177.128906 29.882812 176.980469 29.824219 C 176.835938 29.761719 176.707031 29.675781 176.59375 29.5625 C 176.484375 29.449219 176.398438 29.320312 176.335938 29.175781 C 176.277344 29.027344 176.246094 28.878906 176.246094 28.71875 L 176.246094 6.5 C 176.246094 6.339844 176.277344 6.1875 176.335938 6.042969 C 176.398438 5.894531 176.484375 5.765625 176.59375 5.65625 C 176.707031 5.542969 176.835938 5.457031 176.980469 5.394531 C 177.128906 5.335938 177.277344 5.304688 177.4375 5.304688 Z M 177.4375 5.304688 " fill-opacity="1" fill-rule="nonzero"/><path fill="#3a52a3" d="M 55.613281 36.832031 C 55.859375 38.175781 56.09375 39.523438 56.414062 40.839844 C 57.5 45.273438 59.019531 49.550781 60.96875 53.679688 C 59.605469 53.367188 58.292969 52.917969 57.03125 52.324219 C 55.761719 51.683594 54.570312 50.925781 53.445312 50.054688 C 52.324219 49.183594 51.296875 48.214844 50.359375 47.148438 C 49.421875 46.078125 48.59375 44.933594 47.875 43.707031 C 47.15625 42.484375 46.5625 41.199219 46.089844 39.863281 L 47.515625 37.667969 Z M 55.613281 36.832031 " fill-opacity="1" fill-rule="nonzero"/><path fill="#3a52a3" d="M 172.449219 10.484375 L 103.980469 10.484375 L 103.980469 22.976562 L 172.449219 22.976562 Z M 172.449219 10.484375 " fill-opacity="1" fill-rule="nonzero"/></g></g></g><g transform="matrix(1, 0, 0, 1, 55, 94)"><g clip-path="url(#0740584e40)"><g fill="#3a52a3" fill-opacity="1"><g transform="translate(0.875001, 141.260232)"><g><path d="M 70.046875 -94.734375 L 70.046875 -76.25 L 31.4375 -76.25 L 31.4375 -56.28125 L 60.328125 -56.28125 L 60.328125 -38.328125 L 31.4375 -38.328125 L 31.4375 0 L 8.359375 0 L 8.359375 -94.734375 Z M 70.046875 -94.734375 "/></g></g></g><g fill="#3a52a3" fill-opacity="1"><g transform="translate(74.687101, 141.260232)"><g><path d="M 80.5625 -64.234375 C 80.5625 -58.742188 79.300781 -53.726562 76.78125 -49.1875 C 74.269531 -44.644531 70.40625 -40.976562 65.1875 -38.1875 C 59.96875 -35.40625 53.488281 -34.015625 45.75 -34.015625 L 31.4375 -34.015625 L 31.4375 0 L 8.359375 0 L 8.359375 -94.734375 L 45.75 -94.734375 C 53.300781 -94.734375 59.6875 -93.425781 64.90625 -90.8125 C 70.125 -88.207031 74.035156 -84.609375 76.640625 -80.015625 C 79.253906 -75.429688 80.5625 -70.171875 80.5625 -64.234375 Z M 44 -52.359375 C 48.40625 -52.359375 51.6875 -53.390625 53.84375 -55.453125 C 56 -57.523438 57.078125 -60.453125 57.078125 -64.234375 C 57.078125 -68.015625 56 -70.9375 53.84375 -73 C 51.6875 -75.070312 48.40625 -76.109375 44 -76.109375 L 31.4375 -76.109375 L 31.4375 -52.359375 Z M 44 -52.359375 "/></g></g></g><g fill="#3a52a3" fill-opacity="1"><g transform="translate(158.889562, 141.260232)"><g><path d="M 138.734375 -94.734375 L 114.03125 0 L 86.09375 0 L 70.984375 -62.34375 L 55.328125 0 L 27.390625 0 L 3.375 -94.734375 L 28.0625 -94.734375 L 41.703125 -25.78125 L 58.5625 -94.734375 L 83.9375 -94.734375 L 100.140625 -25.78125 L 113.90625 -94.734375 Z M 138.734375 -94.734375 "/></g></g></g></g></g></svg>